<svg xmlns="http://www.w3.org/2000/svg" viewBox="0 0 100 125" x="0px" y="0px"><defs><style>.cls-1{fill:none;}</style></defs><title>Nintendo</title><g data-name="Livello 2"><g><rect class="cls-1" width="100" height="100"/><path d="M21.23,72.19H14.78a.78.78,0,0,1-.78-.78V66.65H9.24a.78.78,0,0,1-.78-.78V59.42a.78.78,0,0,1,.78-.78H14V53.88a.78.78,0,0,1,.78-.78h6.45a.78.78,0,0,1,.78.78v4.76h4.76a.78.78,0,0,1,.78.78v6.45a.78.78,0,0,1-.78.78H22v4.76A.78.78,0,0,1,21.23,72.19Zm-5.83-1.4h5.21V66a.78.78,0,0,1,.78-.78h4.76V60H21.39a.78.78,0,0,1-.78-.78V54.5H15.4v4.76a.78.78,0,0,1-.78.78H9.86v5.21h4.76a.78.78,0,0,1,.78.78Z"/><path d="M18,65.34a2.7,2.7,0,1,1,2.7-2.7A2.71,2.71,0,0,1,18,65.34Zm0-4a1.3,1.3,0,1,0,1.3,1.3A1.3,1.3,0,0,0,18,61.34Z"/><path d="M75,73.77H64.19a.8.8,0,0,1-.8-.8V62.16a.8.8,0,0,1,.8-.8H75a.8.8,0,0,1,.8.8V73A.8.8,0,0,1,75,73.77Zm-10.22-1.4h9.62V62.76H64.79Z"/><path d="M69.6,71.87a4.31,4.31,0,1,1,4.31-4.31A4.31,4.31,0,0,1,69.6,71.87Zm0-7.21a2.91,2.91,0,1,0,2.91,2.91A2.91,2.91,0,0,0,69.6,64.66Z"/><path d="M88.75,73.77H77.93a.8.8,0,0,1-.8-.8V62.16a.8.8,0,0,1,.8-.8H88.75a.8.8,0,0,1,.8.8V73A.8.8,0,0,1,88.75,73.77Zm-10.22-1.4h9.62V62.76H78.53Z"/><path d="M83.34,71.87a4.31,4.31,0,1,1,4.31-4.31A4.31,4.31,0,0,1,83.34,71.87Zm0-7.21a2.91,2.91,0,1,0,2.91,2.91A2.91,2.91,0,0,0,83.34,64.66Z"/><path d="M58.08,71.63H34.7a1.7,1.7,0,0,1-1.7-1.7v-6a1.7,1.7,0,0,1,1.7-1.7H58.08a1.7,1.7,0,0,1,1.7,1.7v6A1.7,1.7,0,0,1,58.08,71.63Zm-23.38-8a.3.3,0,0,0-.3.3v6a.3.3,0,0,0,.3.3H58.08a.3.3,0,0,0,.3-.3v-6a.3.3,0,0,0-.3-.3Z"/><path d="M58.28,61H34.5A1.5,1.5,0,0,1,33,59.5V57.88a1.5,1.5,0,0,1,1.5-1.5H58.28a1.5,1.5,0,0,1,1.5,1.5V59.5A1.5,1.5,0,0,1,58.28,61ZM34.5,57.78a.1.1,0,0,0-.1.1V59.5a.1.1,0,0,0,.1.1H58.28a.1.1,0,0,0,.1-.1V57.88a.1.1,0,0,0-.1-.1Z"/><path d="M58.28,55.17H34.5a1.5,1.5,0,0,1-1.5-1.5V52.06a1.5,1.5,0,0,1,1.5-1.5H58.28a1.5,1.5,0,0,1,1.5,1.5v1.61A1.5,1.5,0,0,1,58.28,55.17ZM34.5,52a.1.1,0,0,0-.1.1v1.61a.1.1,0,0,0,.1.1H58.28a.1.1,0,0,0,.1-.1V52.06a.1.1,0,0,0-.1-.1Z"/><path d="M58.28,49.34H34.5a1.5,1.5,0,0,1-1.5-1.5V45.43a.7.7,0,1,1,1.4,0v2.41a.1.1,0,0,0,.1.1H58.28a.1.1,0,0,0,.1-.1V45.43a.7.7,0,1,1,1.4,0v2.41A1.5,1.5,0,0,1,58.28,49.34Z"/><path d="M59.08,77.26a.7.7,0,0,1-.7-.7V74.35a.1.1,0,0,0-.1-.1H34.5a.1.1,0,0,0-.1.1v2.21a.7.7,0,0,1-1.4,0V74.35a1.5,1.5,0,0,1,1.5-1.5H58.28a1.5,1.5,0,0,1,1.5,1.5v2.21A.7.7,0,0,1,59.08,77.26Z"/><path d="M95.72,77.26H4.29a.78.78,0,0,1-.78-.78v-31a.78.78,0,0,1,.78-.78H95.72a.78.78,0,0,1,.78.78v31A.78.78,0,0,1,95.72,77.26ZM4.91,75.86H95.1V46.13H4.91ZM95.72,46.13h0Z"/><path d="M98.92,80.25H1.08a.78.78,0,0,1-.78-.78V38.13a.78.78,0,0,1,.78-.78H98.92a.78.78,0,0,1,.78.78V79.47A.78.78,0,0,1,98.92,80.25ZM50,78.85H98.3V38.76H1.7V78.85ZM98.92,38.76h0Z"/><path d="M85.49,52.68H67.16a.7.7,0,0,1,0-1.4H85.49a.7.7,0,0,1,0,1.4Z"/><path d="M50,38.76a.7.7,0,0,1-.7-.7v-7a.7.7,0,1,1,1.4,0v7A.7.7,0,0,1,50,38.76Z"/><path d="M50,22.75a.7.7,0,0,1-.7-.7v-1.6a.7.7,0,0,1,1.4,0v1.6A.7.7,0,0,1,50,22.75Z"/><path d="M50,28.14a.7.7,0,0,1-.7-.7v-1.6a.7.7,0,0,1,1.4,0v1.6A.7.7,0,0,1,50,28.14Z"/><path d="M43.54,69.13H39.13a2.2,2.2,0,0,1,0-4.41h4.42a2.2,2.2,0,0,1,0,4.41Zm-4.42-3a.8.8,0,0,0,0,1.61h4.42a.8.8,0,0,0,0-1.61Z"/><path d="M53.65,69.13H49.24a2.2,2.2,0,1,1,0-4.41h4.42a2.2,2.2,0,1,1,0,4.41Zm-4.42-3a.8.8,0,1,0,0,1.61h4.42a.8.8,0,1,0,0-1.61Z"/></g></g><text x="0" y="115" fill="#000000" font-size="5px" font-weight="bold" font-family="'Helvetica Neue', Helvetica, Arial-Unicode, Arial, Sans-serif">Created by Alessandro Curci</text><text x="0" y="120" fill="#000000" font-size="5px" font-weight="bold" font-family="'Helvetica Neue', Helvetica, Arial-Unicode, Arial, Sans-serif">from the Noun Project</text></svg>