<svg xmlns="http://www.w3.org/2000/svg" viewBox="0 0 100 125" x="0px" y="0px"><defs><style>.cls-1{fill:none;}</style></defs><title>Nintendo 64</title><g data-name="Livello 2"><g><rect class="cls-1" width="100" height="100"/><path d="M25.56,44.21h-5.3l-.06-.76v-3.2h-3.9l-.06-.76v-5.3l.76-.06h3.2v-3.9l.76-.06h5.3l.06.76v3.2h3.9l.06.76v5.3l-.76.06h-3.2v3.9Zm-4-1.4h3.32v-3.9l.76-.06h3.2V35.54H25l-.06-.76v-3.2H21.6v3.9l-.76.06h-3.2v3.32h3.9l.06.76Z"/><path d="M72.79,37a3.07,3.07,0,1,1,3.07-3.07A3.07,3.07,0,0,1,72.79,37Zm0-4.73a1.67,1.67,0,1,0,1.67,1.67A1.67,1.67,0,0,0,72.79,32.27Z"/><path d="M78.44,42.65a3.07,3.07,0,1,1,3.07-3.07A3.07,3.07,0,0,1,78.44,42.65Zm0-4.73a1.67,1.67,0,1,0,1.67,1.67A1.67,1.67,0,0,0,78.44,37.92Z"/><path d="M72.43,49.26a3.86,3.86,0,1,1,3.86-3.86A3.86,3.86,0,0,1,72.43,49.26Zm0-6.31a2.46,2.46,0,1,0,2.46,2.46A2.46,2.46,0,0,0,72.43,42.94Z"/><path d="M66.12,42.94A3.86,3.86,0,1,1,70,39.09,3.86,3.86,0,0,1,66.12,42.94Zm0-6.31a2.46,2.46,0,1,0,2.46,2.46A2.46,2.46,0,0,0,66.12,36.63Z"/><path d="M50,42.62a3.86,3.86,0,1,1,3.86-3.86A3.86,3.86,0,0,1,50,42.62Zm0-6.31a2.46,2.46,0,1,0,2.46,2.46A2.46,2.46,0,0,0,50,36.31Z"/><path d="M50,59.86a4.65,4.65,0,1,1,4.65-4.65A4.65,4.65,0,0,1,50,59.86ZM50,52a3.25,3.25,0,1,0,3.25,3.25A3.25,3.25,0,0,0,50,52Z"/><path d="M78,31.82A3.07,3.07,0,1,1,81,28.75,3.07,3.07,0,0,1,78,31.82Zm0-4.73a1.67,1.67,0,1,0,1.67,1.67A1.67,1.67,0,0,0,78,27.08Z"/><path d="M83.63,37.46a3.07,3.07,0,1,1,3.07-3.07A3.07,3.07,0,0,1,83.63,37.46Zm0-4.73a1.67,1.67,0,1,0,1.67,1.67A1.67,1.67,0,0,0,83.63,32.73Z"/><path d="M50,65.36A9.35,9.35,0,1,1,59.35,56,9.36,9.36,0,0,1,50,65.36Zm0-17.3a8,8,0,1,0,8,8A8,8,0,0,0,50,48.05Z"/><path d="M83.56,49.54a.7.7,0,0,1-.4-1.28,13.18,13.18,0,0,0-7.45-24.06H67.26a.7.7,0,1,1,0-1.4h8.46A14.58,14.58,0,0,1,84,49.42.7.7,0,0,1,83.56,49.54Z"/><path d="M16.41,49.53a.7.7,0,0,1-.4-.12,14.58,14.58,0,0,1,8.26-26.6h8.46a.7.7,0,1,1,0,1.4H24.28a13.18,13.18,0,0,0-7.47,24,.7.7,0,0,1-.4,1.28Z"/><path d="M50,99.7C42.64,99.7,39,77,38.61,74.37l-1-10.06a11,11,0,0,0-3.8-7.43,9,9,0,0,0-7.17-2.05,2.3,2.3,0,0,0-2.07,2c-.92,7.52-3.82,24.67-11,24.67a4.6,4.6,0,0,1-.53,0,4.53,4.53,0,0,1-3.15-2c-6.29-8.45-.21-43.26,0-44.73a.7.7,0,1,1,1.38.24c-.06.36-6.23,35.69-.3,43.65a3.15,3.15,0,0,0,2.19,1.4c5.08.61,8.51-11.71,10-23.42a3.71,3.71,0,0,1,3.34-3.23,10.38,10.38,0,0,1,8.19,2.37A12.43,12.43,0,0,1,39,64.17l1,10a108.14,108.14,0,0,0,2.71,12.26C44.94,94.09,47.53,98.3,50,98.3s5.06-4.21,7.29-11.86A107.5,107.5,0,0,0,60,74.16l1-10a12.43,12.43,0,0,1,4.3-8.36,10.38,10.38,0,0,1,8.2-2.37,3.71,3.71,0,0,1,3.33,3.22c1.41,11.44,4.66,23.44,9.59,23.45l.36,0A3.15,3.15,0,0,0,89,78.69c5.93-8-.24-43.3-.3-43.65a.7.7,0,1,1,1.38-.24c.26,1.48,6.34,36.29,0,44.73a4.53,4.53,0,0,1-3.15,2c-7.54.88-10.55-16.94-11.5-24.64a2.3,2.3,0,0,0-2.07-2,9,9,0,0,0-7.17,2.05,11,11,0,0,0-3.8,7.43l-1,10C61,77,57.36,99.7,50,99.7Z"/><path d="M59.47,36.31a.7.7,0,0,1-.59-1.08l7.57-11.76a11.41,11.41,0,0,0-8-5.93l-1.3-.24a39.49,39.49,0,0,0-14.22,0l-1.3.24a11.42,11.42,0,0,0-8,5.93l7.57,11.76a.7.7,0,0,1-1.18.76l-8-12.43.17-.35a12.82,12.82,0,0,1,9.23-7l1.3-.24a40.85,40.85,0,0,1,14.72,0l1.3.24a12.81,12.81,0,0,1,9.23,7l.17.35L60.06,36A.7.7,0,0,1,59.47,36.31Z"/><path d="M50,16.65a.7.7,0,0,1-.7-.7V10a.7.7,0,1,1,1.4,0V16A.7.7,0,0,1,50,16.65Z"/><path d="M50,3.06a.7.7,0,0,1-.7-.7V1a.7.7,0,1,1,1.4,0V2.36A.7.7,0,0,1,50,3.06Z"/><path d="M50,7.64a.7.7,0,0,1-.7-.7V5.57a.7.7,0,1,1,1.4,0V6.94A.7.7,0,0,1,50,7.64Z"/></g></g><text x="0" y="115" fill="#000000" font-size="5px" font-weight="bold" font-family="'Helvetica Neue', Helvetica, Arial-Unicode, Arial, Sans-serif">Created by Alessandro Curci</text><text x="0" y="120" fill="#000000" font-size="5px" font-weight="bold" font-family="'Helvetica Neue', Helvetica, Arial-Unicode, Arial, Sans-serif">from the Noun Project</text></svg>